<svg width="21" height="18" viewBox="0 0 21 18" fill="none" xmlns="http://www.w3.org/2000/svg">
<path id="Vector" d="M20.96 2.5C20.19 2.85 19.36 3.08 18.5 3.19C19.38 2.66 20.06 1.82 20.38 0.81C19.55 1.31 18.63 1.66 17.66 1.86C16.87 1 15.76 0.5 14.5 0.5C12.15 0.5 10.23 2.42 10.23 4.79C10.23 5.13 10.27 5.46 10.34 5.77C6.78004 5.59 3.61004 3.88 1.50004 1.29C1.13004 1.92 0.920039 2.66 0.920039 3.44C0.920039 4.93 1.67004 6.25 2.83004 7C2.12004 7 1.46004 6.8 0.880039 6.5V6.53C0.880039 8.61 2.36004 10.35 4.32004 10.74C3.69077 10.9122 3.03013 10.9362 2.39004 10.81C2.66165 11.6625 3.19358 12.4084 3.91106 12.9429C4.62854 13.4775 5.49549 13.7737 6.39004 13.79C4.87367 14.9904 2.99404 15.6393 1.06004 15.63C0.720039 15.63 0.380039 15.61 0.0400391 15.57C1.94004 16.79 4.20004 17.5 6.62004 17.5C14.5 17.5 18.83 10.96 18.83 5.29C18.83 5.1 18.83 4.92 18.82 4.73C19.66 4.13 20.38 3.37 20.96 2.5Z" fill="#FFDE6A"/>
</svg>
