<svg width="19" height="18" viewBox="0 0 19 18" fill="none" xmlns="http://www.w3.org/2000/svg">
<path id="Vector" d="M16.96 0C17.4904 0 17.9991 0.210714 18.3742 0.585786C18.7492 0.960859 18.96 1.46957 18.96 2V16C18.96 16.5304 18.7492 17.0391 18.3742 17.4142C17.9991 17.7893 17.4904 18 16.96 18H2.95996C2.42953 18 1.92082 17.7893 1.54575 17.4142C1.17067 17.0391 0.959961 16.5304 0.959961 16V2C0.959961 1.46957 1.17067 0.960859 1.54575 0.585786C1.92082 0.210714 2.42953 0 2.95996 0H16.96ZM16.46 15.5V10.2C16.46 9.33539 16.1165 8.5062 15.5051 7.89483C14.8938 7.28346 14.0646 6.94 13.2 6.94C12.35 6.94 11.36 7.46 10.88 8.24V7.13H8.08996V15.5H10.88V10.57C10.88 9.8 11.5 9.17 12.27 9.17C12.6413 9.17 12.9974 9.3175 13.2599 9.58005C13.5225 9.8426 13.67 10.1987 13.67 10.57V15.5H16.46ZM4.83996 5.56C5.28552 5.56 5.71284 5.383 6.0279 5.06794C6.34296 4.75288 6.51996 4.32556 6.51996 3.88C6.51996 2.95 5.76996 2.19 4.83996 2.19C4.39175 2.19 3.96189 2.36805 3.64495 2.68499C3.32801 3.00193 3.14996 3.43178 3.14996 3.88C3.14996 4.81 3.90996 5.56 4.83996 5.56ZM6.22996 15.5V7.13H3.45996V15.5H6.22996Z" fill="#FFDE6A"/>
</svg>
