<svg width="99" height="24" viewBox="0 0 99 24" fill="none" xmlns="http://www.w3.org/2000/svg">
<g id="Spikkr Logo" clip-path="url(#clip0_1274_4130)">
<path id="Vector" fill-rule="evenodd" clip-rule="evenodd" d="M11.8927 0C2.97319 0 0 2.97319 0 11.8927C0 20.8123 2.97319 23.7855 11.8927 23.7855C15.6697 23.7855 18.3804 23.2524 20.2506 21.9604L18.99 20.9537L18.1048 20.2195L16.5932 18.9446L15.697 18.1159L12.8883 15.4889L15.9532 12.4694L22.2861 19.7337C23.3426 17.8918 23.7855 15.3351 23.7855 11.8927C23.7855 2.97319 20.8123 0 11.8927 0ZM15.9532 12.4694L12.6824 15.6913C11.8813 15.6536 11.0919 15.3527 10.4816 14.7415C9.8579 14.1154 9.5099 13.2685 9.51417 12.3873C9.5184 11.506 9.87457 10.6625 10.5043 10.0424C11.1343 9.42277 11.986 9.07727 12.8721 9.0818C13.7583 9.08633 14.6063 9.44053 15.2299 10.0665C15.8387 10.6773 16.1326 11.4647 16.1636 12.2621L15.9532 12.4694Z" fill="#FFDE6A"/>
<path id="Vector_2" d="M27.1191 13.0827H31.4258C31.5618 13.4604 31.7658 13.7853 32.0378 14.0573C32.6725 14.692 33.564 15.0093 34.7123 15.0093C35.5133 15.0093 36.1103 14.8809 36.503 14.624C36.896 14.3671 37.0923 14.0422 37.0923 13.6493C37.0923 13.4831 37.047 13.332 36.9563 13.196C36.881 13.0449 36.745 12.9089 36.5483 12.788C36.367 12.6671 36.1857 12.5689 36.0043 12.4933C35.823 12.4027 35.5587 12.312 35.211 12.2213C34.8787 12.1156 34.599 12.0324 34.3723 11.972C34.1457 11.9116 33.8133 11.8284 33.375 11.7227C32.952 11.6169 32.6271 11.5338 32.4005 11.4733C30.9649 11.0804 29.8165 10.5364 28.9551 9.84134C28.1089 9.14624 27.6858 8.14891 27.6858 6.84934C27.6858 5.47424 28.2751 4.30311 29.4538 3.33601C30.6476 2.35378 32.2494 1.86267 34.259 1.86267C36.828 1.86267 38.747 2.69378 40.0163 4.35601C40.5757 5.08134 40.961 5.91244 41.1723 6.84934H36.8657C36.775 6.60757 36.624 6.38091 36.4123 6.16934C35.929 5.71601 35.211 5.48934 34.259 5.48934C33.5187 5.48934 32.9747 5.60267 32.6271 5.82934C32.2796 6.04091 32.1058 6.30534 32.1058 6.62267C32.1058 7.04577 32.3551 7.38577 32.8538 7.64267C33.3677 7.88444 34.1157 8.11867 35.0977 8.34534C35.672 8.48134 36.08 8.58711 36.3217 8.66267C36.5787 8.72311 36.979 8.84401 37.523 9.02534C38.0823 9.19157 38.5053 9.35024 38.7923 9.50134C39.0797 9.65244 39.4197 9.86401 39.8123 10.136C40.2203 10.3929 40.5227 10.6724 40.719 10.9747C40.9307 11.2618 41.112 11.6169 41.263 12.04C41.4293 12.4631 41.5123 12.924 41.5123 13.4227C41.5123 14.8733 40.9157 16.1049 39.7217 17.1173C38.528 18.1298 36.8583 18.636 34.7123 18.636C32.0227 18.636 29.9525 17.7142 28.5018 15.8707C27.8823 15.0698 27.4214 14.1404 27.1191 13.0827Z" fill="#032628"/>
<path id="Vector_3" d="M43.335 22.4894V6.39603H47.1883V7.9827H47.415C47.6263 7.63513 47.9136 7.3178 48.2763 7.0307C49.1073 6.38093 49.9913 6.05603 50.9283 6.05603C52.379 6.05603 53.6103 6.63026 54.623 7.7787C55.6353 8.91203 56.1416 10.4156 56.1416 12.2894C56.1416 14.1631 55.6353 15.6743 54.623 16.8227C53.6103 17.956 52.379 18.5227 50.9283 18.5227C49.9763 18.5227 49.0923 18.2054 48.2763 17.5707C47.9136 17.2836 47.6263 16.9587 47.415 16.596H47.1883V22.4894H43.335ZM47.8683 10.1134C47.415 10.6271 47.1883 11.3525 47.1883 12.2894C47.1883 13.2263 47.415 13.9516 47.8683 14.4654C48.3216 14.9791 48.926 15.236 49.6816 15.236C50.437 15.236 51.0416 14.9791 51.495 14.4654C51.9483 13.9516 52.175 13.2263 52.175 12.2894C52.175 11.3525 51.9483 10.6271 51.495 10.1134C51.0416 9.5996 50.437 9.3427 49.6816 9.3427C48.926 9.3427 48.3216 9.5996 47.8683 10.1134Z" fill="#032628"/>
<path id="Vector_4" d="M57.8311 3.22269C57.8311 2.67869 58.0351 2.22536 58.4431 1.86269C58.8511 1.48491 59.3647 1.29602 59.9844 1.29602C60.6037 1.29602 61.1177 1.48491 61.5257 1.86269C61.9337 2.22536 62.1377 2.67869 62.1377 3.22269C62.1377 3.75159 61.9337 4.20493 61.5257 4.58269C61.1177 4.96046 60.6037 5.14936 59.9844 5.14936C59.3647 5.14936 58.8511 4.96046 58.4431 4.58269C58.0351 4.20493 57.8311 3.75159 57.8311 3.22269ZM58.0577 18.1827V6.39603H61.9111V18.1827H58.0577Z" fill="#032628"/>
<path id="Vector_5" d="M64.2969 18.1827V2.31604H68.1502V10.5894H69.3969L72.0035 6.39605H76.0835L72.6835 11.9494L76.4235 18.1827H72.2302L69.6235 13.876H68.1502V18.1827H64.2969Z" fill="#032628"/>
<path id="Vector_6" d="M77.5566 18.1827V2.31604H81.41V10.5894H82.6566L85.2633 6.39605H89.3433L85.9433 11.9494L89.6833 18.1827H85.49L82.8833 13.876H81.41V18.1827H77.5566Z" fill="#032628"/>
<path id="Vector_7" d="M90.8154 18.1828V6.3961H94.5554V8.0961H94.7821C94.9181 7.73343 95.1221 7.4161 95.3941 7.1441C96.0138 6.49433 96.7691 6.16943 97.6608 6.16943H98.8621V9.90943H96.9354C96.2554 9.90943 95.7038 10.121 95.2808 10.5441C94.8728 10.9521 94.6688 11.4961 94.6688 12.1761V18.1828H90.8154Z" fill="#032628"/>
</g>
<defs>
<clipPath id="clip0_1274_4130">
<rect width="99" height="24" fill="white"/>
</clipPath>
</defs>
</svg>
